<svg aria-hidden="true" style="position: absolute; width: 0; height: 0; overflow: hidden;" version="1.1" xmlns="http://www.w3.org/2000/svg" xmlns:xlink="http://www.w3.org/1999/xlink">
<defs>
<symbol id="icon-modal-how-it-works-play" viewBox="0 0 32 32">
<path  d="M28.587 14.293l-20.64-10.32c-0.227-0.108-0.493-0.17-0.774-0.17-0.363 0-0.702 0.105-0.987 0.287l0.007-0.004c-0.513 0.327-0.851 0.889-0.86 1.531v20.632c-0 0.005-0 0.010-0 0.015 0 0.325 0.085 0.63 0.233 0.895l-0.005-0.009c0.152 0.276 0.373 0.507 0.641 0.673s0.574 0.259 0.889 0.271c0.022 0.001 0.047 0.001 0.072 0.001 0.305 0 0.593-0.075 0.846-0.207l-0.010 0.005 20.587-10.32c0.308-0.157 0.559-0.388 0.736-0.671l0.005-0.008c0.172-0.275 0.274-0.608 0.274-0.966 0-0 0-0 0-0v0c0-0.341-0.095-0.676-0.274-0.966-0.181-0.29-0.432-0.521-0.73-0.674l-0.010-0.005v0.009z"></path>
</symbol>
<symbol id="icon-modal-close-icon" viewBox="0 0 32 32">
<path d="M17.254 16l7.369-7.369c0.146-0.17 0.222-0.389 0.213-0.613s-0.101-0.436-0.26-0.594c-0.158-0.158-0.37-0.251-0.594-0.26s-0.442 0.067-0.613 0.213l-7.369 7.369-7.369-7.378c-0.167-0.167-0.394-0.261-0.631-0.261s-0.464 0.094-0.631 0.261c-0.167 0.167-0.261 0.394-0.261 0.631s0.094 0.464 0.261 0.631l7.378 7.369-7.378 7.369c-0.093 0.080-0.169 0.178-0.222 0.288s-0.083 0.23-0.088 0.353 0.016 0.245 0.061 0.359c0.045 0.114 0.112 0.218 0.199 0.304s0.19 0.154 0.304 0.199c0.114 0.045 0.236 0.065 0.359 0.061s0.243-0.035 0.353-0.088c0.11-0.053 0.208-0.129 0.288-0.222l7.378-7.369 7.369 7.369c0.17 0.146 0.389 0.222 0.613 0.213s0.436-0.101 0.594-0.26c0.158-0.158 0.251-0.371 0.26-0.594s-0.068-0.443-0.213-0.613l-7.369-7.369z"></path>
</symbol>
</defs>
</svg>
