<svg aria-hidden="true" style="width:0;height:0;position:absolute;overflow:hidden" xmlns="http://www.w3.org/2000/svg"><defs><symbol id="icon-modal-how-it-works-play" viewBox="0 0 32 32"><path d="M28.587 14.293 7.947 3.973a1.809 1.809 0 0 0-.774-.17c-.363 0-.702.105-.987.287l.007-.004a1.842 1.842 0 0 0-.86 1.531V26.264c0 .325.085.63.233.895l-.005-.009a1.831 1.831 0 0 0 1.53.944l.072.001c.305 0 .593-.075.846-.207l-.01.005 20.587-10.32c.308-.157.559-.388.736-.671l.005-.008a1.84 1.84 0 0 0-.73-2.606l-.01-.005v.009z"/></symbol><symbol id="icon-modal-close-icon" viewBox="0 0 32 32"><path d="m17.254 16 7.369-7.369a.886.886 0 0 0-.047-1.207.89.89 0 0 0-1.207-.047L16 14.746 8.631 7.368A.892.892 0 0 0 7.369 8.63l7.378 7.369-7.378 7.369a.891.891 0 0 0-.05 1.304.906.906 0 0 0 .663.26.88.88 0 0 0 .641-.31l7.378-7.369 7.369 7.369a.886.886 0 0 0 1.207-.047.893.893 0 0 0 .047-1.207l-7.369-7.369z"/></symbol></defs></svg>